<svg width="16" height="14" viewBox="0 0 16 14" fill="none" xmlns="http://www.w3.org/2000/svg">
<path d="M1.12497 0.125H14.875C15.0776 0.125 15.2719 0.205481 15.4151 0.348738C15.5584 0.491995 15.6389 0.686293 15.6389 0.888889V13.1111C15.6389 13.3137 15.5584 13.508 15.4151 13.6513C15.2719 13.7945 15.0776 13.875 14.875 13.875H1.12497C0.922377 13.875 0.728079 13.7945 0.584822 13.6513C0.441565 13.508 0.361084 13.3137 0.361084 13.1111V0.888889C0.361084 0.686293 0.441565 0.491995 0.584822 0.348738C0.728079 0.205481 0.922377 0.125 1.12497 0.125ZM14.1111 3.36236L8.05497 8.78597L1.88886 3.34556V12.3472H14.1111V3.36236ZM2.27921 1.65278L8.04657 6.74181L13.7307 1.65278H2.27921Z" fill="#ACB4C3"/>
</svg>
