<svg width="16" height="16" viewBox="0 0 16 16" fill="none" xmlns="http://www.w3.org/2000/svg">
<path d="M7.99997 15.6389C3.78101 15.6389 0.361084 12.2189 0.361084 7.99997C0.361084 3.78101 3.78101 0.361084 7.99997 0.361084C12.2189 0.361084 15.6389 3.78101 15.6389 7.99997C15.6389 12.2189 12.2189 15.6389 7.99997 15.6389ZM7.99997 14.1111C9.62074 14.1111 11.1751 13.4672 12.3212 12.3212C13.4672 11.1751 14.1111 9.62074 14.1111 7.99997C14.1111 6.37921 13.4672 4.82482 12.3212 3.67876C11.1751 2.53271 9.62074 1.88886 7.99997 1.88886C6.37921 1.88886 4.82482 2.53271 3.67876 3.67876C2.53271 4.82482 1.88886 6.37921 1.88886 7.99997C1.88886 9.62074 2.53271 11.1751 3.67876 12.3212C4.82482 13.4672 6.37921 14.1111 7.99997 14.1111ZM4.18053 7.99997H5.70831C5.70831 8.60776 5.94975 9.19066 6.37952 9.62043C6.80929 10.0502 7.39219 10.2916 7.99997 10.2916C8.60776 10.2916 9.19066 10.0502 9.62043 9.62043C10.0502 9.19066 10.2916 8.60776 10.2916 7.99997H11.8194C11.8194 9.01295 11.417 9.98444 10.7007 10.7007C9.98444 11.417 9.01295 11.8194 7.99997 11.8194C6.98699 11.8194 6.0155 11.417 5.29922 10.7007C4.58293 9.98444 4.18053 9.01295 4.18053 7.99997Z" fill="#ACB4C3"/>
</svg>
